<?xml version="1.0" standalone="no"?><!-- Generator: Gravit.io --><svg xmlns="http://www.w3.org/2000/svg" xmlns:xlink="http://www.w3.org/1999/xlink" style="isolation:isolate" viewBox="0 0 512 512" width="512" height="512"><defs><clipPath id="_clipPath_BLZAzpE57VUP7fW4bJnVt8I6A8OGQFQV"><rect width="512" height="512"/></clipPath></defs><g clip-path="url(#_clipPath_BLZAzpE57VUP7fW4bJnVt8I6A8OGQFQV)"><clipPath id="_clipPath_e13cqZUAiwuTdJ1iFe1xQGelcFvKniQB"><rect x="0" y="0" width="512" height="512" transform="matrix(1,0,0,1,0,0)" fill="rgb(255,255,255)"/></clipPath><g clip-path="url(#_clipPath_e13cqZUAiwuTdJ1iFe1xQGelcFvKniQB)"><g><clipPath id="_clipPath_1SvM2H4mN905gwoEXOFpAWMSQ3Vd0ueB"><rect x="0" y="0" width="512" height="512" transform="matrix(1,0,0,1,0,0)" fill="rgb(255,255,255)"/></clipPath><g clip-path="url(#_clipPath_1SvM2H4mN905gwoEXOFpAWMSQ3Vd0ueB)"><g><g><path d=" M 6.23 1 C 19.41 3.543 32.364 7.664 44.23 14 L 44.23 14 L 122.23 44 C 146.538 48.396 169.431 59.773 183.73 80.5 L 183.73 80.5 L 244.23 140 L 345.23 39 L 370.73 13.5 C 378.357 0.236 400.149 -4.111 408.73 10.5 L 408.73 10.5 L 428.23 30 L 506.73 108.5 C 514.703 118.75 506.758 134.099 497.23 140 L 497.23 140 L 471.73 165.5 L 370.73 267.5 L 412.23 309 L 422.73 319.5 Q 423.23 323.5 428.23 323 Q 435.897 314.667 454.23 317 Q 466.964 320.266 473.73 329.5 Q 481.941 337.789 479.73 356.5 L 473.73 370.5 Q 507.069 391.161 509.73 442.5 Q 505.317 477.587 483.23 495 Q 463.815 515.085 421.23 512 Q 385.064 502.667 365.23 477 Q 357.564 485.333 339.23 483 Q 326.496 479.734 319.73 470.5 Q 311.52 462.211 313.73 443.5 L 319.73 429.5 L 263.23 374 L 162.23 475 L 136.73 500.5 Q 131.605 514.875 109.23 512 Q 89.397 502.833 79.23 484 L 0.73 405.5 C -8.123 395.117 2.086 379.183 11.23 373 L 11.23 373 L 36.73 347.5 L 136.73 246.5 L 76.73 186.5 C 56.326 172.496 45.335 149.898 41.23 126 L 41.23 126 L 11.23 48 C 4.563 36.059 0.3 22.896 -2.27 9.5 L -2.27 9.5 L 3.23 2 L 6.23 1 Z " fill="rgb(0,0,0)"/><path d=" M 391.23 21 L 464.23 94 L 482.23 112 C 487.045 112.344 489.016 115.924 488.73 120.5 L 488.73 120.5 L 209.73 399.5 L 139.73 469.5 L 122.23 487 Q 116.23 499 110.23 487 L 91.73 468.5 L 17.73 394.5 L 47.23 365 L 54.73 357.5 C 55.109 355.228 57.237 354.751 59.23 355 L 59.23 355 L 92.23 388 C 94.881 397.131 103.442 400.214 112.23 400 L 112.23 400 L 117.73 395.5 L 118.73 387.5 C 115.544 381.328 110.945 375.963 105.23 372 L 105.23 372 L 72.73 339.5 L 93.23 320 C 98.336 332.244 109.449 339.017 122.23 341 L 122.23 341 L 127.73 336.5 L 128.73 327.5 L 107.73 304.5 L 128.23 285 L 161.23 318 C 164.54 325.958 171.947 330.015 180.23 331 L 180.23 331 L 186.73 326.5 L 188.73 319.5 C 185.941 312.5 181.168 306.475 174.73 302.5 L 174.73 302.5 L 142.73 269.5 L 163.23 250 L 178.73 265.5 C 182.086 273.946 193.229 273.457 197.73 266.5 L 197.73 266.5 L 198.73 258.5 L 183.23 242 C 178.997 241.647 177.45 238.425 177.73 234.5 L 177.73 234.5 L 192.23 220 C 193.887 216.134 196.833 212.672 199.73 217.5 L 199.73 217.5 L 208.23 226 L 241.23 259 C 243.512 261.984 247.978 261.615 251.23 261 L 251.23 261 L 256.73 256.5 L 257.73 247.5 L 211.73 200.5 L 226.23 186 C 226.581 182.141 229.596 180.72 233.23 181 L 233.23 181 L 248.23 196 C 250.238 200.875 255.372 202.194 260.23 202 L 260.23 202 L 266.73 197.5 L 268.73 191.5 C 268.239 187.37 266.202 183.652 262.23 182 L 262.23 182 L 246.73 165.5 L 267.23 146 L 299.23 178 C 303.185 185.394 310.197 190.03 318.23 192 L 318.23 192 L 325.73 187.5 C 327.674 185.799 328.539 181.933 327.73 179.5 C 325.585 173.046 319.989 167.351 314.23 164 L 314.23 164 L 281.73 130.5 L 302.23 111 L 317.23 126 C 319.145 132.114 325.76 132.761 331.23 132 L 331.23 132 L 336.73 127.5 L 337.73 119.5 C 332.548 110.091 325.415 101.837 316.73 95.5 L 316.73 95.5 L 331.23 81 C 332.887 77.134 335.833 73.672 338.73 78.5 L 338.73 78.5 L 346.73 86.5 L 379.23 119 C 381.654 122.478 386.465 122.521 390.23 122 L 390.23 122 L 395.73 117.5 L 396.73 108.5 L 363.23 74 L 354.73 65.5 C 352.136 65.129 351.474 62.806 351.73 60.5 L 351.73 60.5 L 391.23 21 Z " fill="rgb(255,255,255)"/><path d=" M 392.23 21 L 489.73 119.5 L 488.73 119.5 L 392.23 21 Z  M 26.23 29 L 53.73 39.5 L 40.73 52.5 C 39.652 55.196 37.283 59.33 34.73 55.5 L 34.73 55.5 L 28.23 37 C 25.853 34.909 25.222 31.96 26.23 29 L 26.23 29 Z  M 73.23 47 L 44.23 77 L 73.23 47 Z " fill-rule="evenodd" fill="rgb(0,0,0)"/><path d=" M 74.23 47 L 139.73 72.5 L 68.73 142.5 L 43.73 77.5 L 74.23 47 Z " fill="rgb(255,255,255)"/><path d=" M 157.23 83 L 229.73 154.5 L 171.23 213 L 156.23 228 C 153.49 233.625 149.741 234.363 146.73 228.5 L 146.73 228.5 L 133.23 215 L 79.73 161.5 L 157.23 83 Z " fill="rgb(255,255,255)"/><path d=" M 414.23 129 L 421.73 132.5 C 424.128 134.757 424.127 138.484 423.73 141.5 L 423.73 141.5 L 421.23 146 L 413.23 149 L 406.73 145.5 C 403.746 143.218 404.115 138.753 404.73 135.5 L 404.73 135.5 L 407.23 132 L 414.23 129 Z " fill="rgb(0,0,0)"/><path d=" M 356.23 281 L 411.73 337.5 L 333.23 415 L 291.73 373.5 L 281.23 363 C 276.186 360.31 277.657 357.152 282.23 355 L 282.23 355 L 297.23 340 L 356.23 281 Z " fill="rgb(255,255,255)"/><path d=" M 443.23 337 C 448.258 336.261 453.961 336.378 457.279 340.763 C 460.361 344.835 460.55 349.584 459.73 354.5 L 459.73 354.5 L 353.23 462 C 350.129 464.215 345.727 463.699 342.23 463 L 342.23 463 L 335.73 458.5 Q 332.397 454.833 333.73 446.5 Q 342.73 427 361.23 417 L 439.23 339 L 443.23 337 Z " fill="rgb(0,0,0)"/><path d=" M 459.23 385 L 474.73 399.5 C 500.633 423.657 490.604 468.538 462.191 485.586 C 444.554 496.168 422.978 494.065 405.215 485.016 C 395.569 480.102 387.413 472.724 381.73 463.5 L 381.73 463.5 L 459.23 385 Z " fill="rgb(247,247,247)"/></g></g></g></g></g></g></svg>