<?xml version="1.0" standalone="no"?><!-- Generator: Gravit.io --><svg xmlns="http://www.w3.org/2000/svg" xmlns:xlink="http://www.w3.org/1999/xlink" style="isolation:isolate" viewBox="0 0 512 512" width="512" height="512"><defs><clipPath id="_clipPath_O3MjSdOBHW4KIujfXcPTJ88aoHPaxyxI"><rect width="512" height="512"/></clipPath></defs><g clip-path="url(#_clipPath_O3MjSdOBHW4KIujfXcPTJ88aoHPaxyxI)"><clipPath id="_clipPath_DvtHQf9Ojo0T4f5pbJGvrM7QhYiJwXvV"><rect x="0" y="0" width="512" height="512" transform="matrix(1,0,0,1,0,0)" fill="rgb(255,255,255)"/></clipPath><g clip-path="url(#_clipPath_DvtHQf9Ojo0T4f5pbJGvrM7QhYiJwXvV)"><g><clipPath id="_clipPath_9iC2T0xDi6J8YES93fOBhrAWZLbaObHd"><rect x="0" y="0" width="512" height="512" transform="matrix(1,0,0,1,0,0)" fill="rgb(255,255,255)"/></clipPath><g clip-path="url(#_clipPath_9iC2T0xDi6J8YES93fOBhrAWZLbaObHd)"><g><g><path d=" M 125.5 130.19 L 330.5 130.19 Q 437.434 119.756 480 173.69 Q 511.76 204.431 513 265.69 Q 507.243 327.433 469.5 357.19 Q 426.247 399.937 330.5 390.19 L 125.5 390.19 Q 63.757 384.433 34 346.69 Q 2.24 315.95 1 254.69 Q 6.757 192.947 44.5 163.19 Q 73.143 134.834 125.5 130.19 Z " fill="rgb(0,0,0)"/><path d=" M 127.5 150.19 L 329.5 150.19 Q 422.928 139.763 462 183.69 Q 491.055 210.135 493 263.69 Q 488.494 313.684 459.5 339.19 Q 420.201 380.391 329.5 370.19 L 127.5 370.19 C 92.652 367.049 61.135 352.593 40.586 323.823 C 5.052 274.075 20.521 198.406 72.479 166.669 C 89.033 156.557 108.342 151.896 127.5 150.19 L 127.5 150.19 Z " fill="rgb(255,255,255)"/><path d=" M 119.5 171.19 Q 175.175 169.515 198 200.69 Q 222.182 223.008 220 271.69 Q 213.397 309.587 188.5 329.19 Q 167.754 348.945 128.5 350.19 Q 81.801 346.389 61 316.69 Q 42.228 295.962 41 257.69 Q 45.097 212.287 73.5 191.19 Q 90.841 175.531 119.5 171.19 Z " fill="rgb(0,0,0)"/><path d=" M 130.5 190.19 Q 166.243 192.447 183 213.69 Q 199.185 230.006 201 260.69 Q 198.176 297.366 175.5 314.19 Q 158.681 330.371 125.5 330.19 Q 92.25 325.44 76 303.69 Q 60.393 287.297 61 254.69 Q 65.555 222.245 86.5 206.19 Q 102.5 192.19 130.5 190.19 Z " fill="rgb(255,255,255)"/><path d=" M 279.5 206.19 Q 305.645 205.045 315 220.69 Q 327.086 236.605 323 268.69 Q 321.324 289.514 307.5 298.19 Q 298.478 307.169 278.5 305.19 Q 263.003 301.687 255 290.69 Q 242.914 274.776 247 242.69 Q 249.257 223.447 261.5 214.19 Q 268.225 207.915 279.5 206.19 Z  M 354.5 206.19 L 379.5 206.19 C 387.998 204.807 397.19 207.572 396 217.69 L 396 217.69 L 391.5 224.19 C 384.273 228.422 374.77 227.264 367 225.69 L 367 225.69 L 367.5 246.19 C 376.52 244.427 391.505 244.902 390 257.69 L 390 257.69 L 385.5 264.19 Q 379.289 267.979 367 265.69 Q 371.773 290.963 363.5 303.19 Q 360.833 306.024 354.5 305.19 L 350 302.69 C 344.834 294.941 345.548 284.4 347 275.69 L 347 275.69 L 347 215.69 L 350.5 208.19 L 354.5 206.19 Z  M 417.5 206.19 L 443.5 206.19 C 447.913 205.452 453.623 205.127 457 208.69 L 457 208.69 L 460 215.69 L 456.5 223.19 C 448.892 228.216 438.464 227.247 430 225.69 L 430 225.69 L 430.5 246.19 C 436.974 244.902 445.558 243.944 451 248.69 L 451 248.69 L 454 255.69 L 450.5 263.19 C 444.678 267.28 436.634 266.774 430 265.69 L 430 265.69 L 430 289.69 C 430.893 294.773 431.023 301.672 425.5 304.19 L 425.5 304.19 L 417.5 305.19 L 413 301.69 C 408.124 294.598 409.38 284.56 411 276.69 L 411 276.69 L 411 213.69 L 414.5 208.19 L 417.5 206.19 Z " fill-rule="evenodd" fill="rgb(0,0,0)"/><path d=" M 98.5 219.19 C 107.385 217.562 112.673 222.845 111 231.69 L 111 231.69 L 106.5 237.19 L 99.5 238.19 L 94 234.69 C 91.767 232.737 91.68 229.409 92 226.69 L 92 226.69 L 96.5 220.19 L 98.5 219.19 Z " fill="rgb(0,0,0)"/><path d=" M 280.5 226.19 C 285.035 225.637 290.035 225.572 294.237 227.64 C 304.866 232.872 304.579 251.01 303.885 260.681 C 303.241 269.658 301.46 281.695 291.281 284.722 C 284.848 286.634 278.354 285.538 273.234 281.206 C 269.403 277.964 268.029 273.619 267.021 268.794 C 265.783 262.861 265.683 256.725 266.115 250.7 C 266.669 242.982 267.321 233.835 274.5 229.19 L 274.5 229.19 L 280.5 226.19 Z " fill="rgb(255,255,255)"/><path d=" M 91.5 251.19 C 94.267 250.721 102.24 250.217 103 254.69 C 104.176 261.611 104.414 267.983 108.285 274.155 C 114.671 284.338 127.777 288.769 139 290.69 L 139 290.69 L 140 299.69 L 136.5 304.19 L 128.5 306.19 C 125.773 305.863 123.055 305.391 120.386 304.742 C 98.688 299.462 85.859 281.45 85 259.69 L 85 259.69 L 89.5 252.19 L 91.5 251.19 Z " fill="rgb(0,0,0)"/></g></g></g></g></g></g></svg>