<?xml version="1.0" standalone="no"?><!-- Generator: Gravit.io --><svg xmlns="http://www.w3.org/2000/svg" xmlns:xlink="http://www.w3.org/1999/xlink" style="isolation:isolate" viewBox="0 0 512 512" width="512" height="512"><defs><clipPath id="_clipPath_SuL1CKEkIgwxDVNJJJS4jXfZI9hoqCKu"><rect width="512" height="512"/></clipPath></defs><g clip-path="url(#_clipPath_SuL1CKEkIgwxDVNJJJS4jXfZI9hoqCKu)"><g><path d=" M 125.5 126 L 329.5 126 Q 436.434 115.566 479 169.5 Q 510.682 199.818 512 260.5 Q 506.582 323.082 468.5 353 Q 425.476 395.476 330.5 386 L 125.5 386 Q 62.918 380.582 33 342.5 Q 1.318 312.182 0 251.5 Q 5.418 188.918 43.5 159 Q 72.353 130.353 125.5 126 Z " fill="rgb(0,0,0)"/><path d=" M 123.5 146 L 321.5 146 L 388.5 146 Q 438.092 151.408 463 181.5 Q 491.697 207.803 492 262.5 Q 486.592 312.092 456.5 337 Q 430.902 363.402 381.5 366 L 322.5 366 L 123.5 366 Q 73.908 360.592 49 330.5 Q 20.303 304.197 20 249.5 Q 25.408 199.908 55.5 175 Q 79.662 150.662 123.5 146 Z " fill="rgb(255,255,255)"/><path d=" M 379.5 166 Q 429.887 168.613 452 199.5 Q 471.023 220.477 472 259.5 Q 467.549 304.049 439.5 325 Q 417.101 347.101 370.5 345 Q 334.281 338.719 315 315.5 Q 290.818 293.182 293 244.5 Q 299.603 206.603 324.5 187 Q 344.119 168.619 379.5 166 Z " fill="rgb(0,0,0)"/><path d=" M 378.5 186 Q 419.577 187.423 437 212.5 Q 451.684 228.816 452 259.5 Q 448.507 293.007 427.5 309 Q 409.85 327.35 371.5 325 Q 346.422 320.078 332 304.5 Q 310.524 286.976 313 245.5 Q 318.532 218.032 336.5 203 Q 351.774 188.774 378.5 186 Z " fill="rgb(255,255,255)"/><path d=" M 381.5 210 C 384.551 210.152 387.612 210.471 390.618 211.007 C 413.447 215.076 427.115 234.1 428 256.5 L 428 256.5 L 423.5 264 L 418.5 266 Q 412.625 265.375 410 261.5 Q 409.25 244.25 399.5 236 Q 389.369 228.131 374 225.5 L 372 219.5 C 372.744 216.08 374.513 212.933 377.5 211 L 377.5 211 L 381.5 210 Z  M 106.5 211 Q 136.426 209.574 147 227.5 Q 158.714 242.786 155 273.5 Q 151.619 292.619 138.5 302 Q 128.11 311.11 107.5 310 Q 91.573 307.427 83 297.5 Q 66.5 282 72 244.5 Q 75.391 230.391 84.5 222 Q 92.831 213.831 106.5 211 Z  M 188.5 211 C 192.523 210.459 197.645 210.621 200 214.5 L 200 214.5 L 245.5 272 L 246 234.5 C 245.183 229.101 244.861 223.255 246.697 218.01 C 248.854 211.851 253.037 209.777 259.5 211 L 259.5 211 L 263 213.5 C 268.166 221.249 267.452 231.79 266 240.5 L 266 240.5 L 266 301.5 L 262.5 308 C 260.243 310.398 256.516 310.397 253.5 310 L 253.5 310 L 248 306.5 L 202.5 249 L 202 286.5 C 203.476 296.263 203.054 311.783 189.5 310 L 189.5 310 L 185 307.5 C 179.834 299.751 180.548 289.21 182 280.5 L 182 280.5 L 182 219.5 L 185.5 213 L 188.5 211 Z " fill-rule="evenodd" fill="rgb(0,0,0)"/><path d=" M 108.5 231 C 112.943 230.64 117.55 230.744 121.834 232.103 C 130.617 234.89 134.793 243.713 135.97 252.28 C 137.314 262.056 136.952 275.117 130.141 283.016 C 128.44 284.988 125.705 287.317 123.227 288.477 C 107.915 295.641 92.795 283.971 90.652 268.66 C 89.623 261.3 90.543 253.734 92 246.5 L 92 246.5 L 98.5 236 L 108.5 231 Z " fill="rgb(255,255,255)"/><path d=" M 411.5 278 C 415.506 277.72 420.079 278.51 422 282.5 L 422 282.5 L 423 291.5 L 420.5 295 C 418.218 297.984 413.753 297.615 410.5 297 L 410.5 297 L 405 292.5 L 404 285.5 L 407.5 280 L 411.5 278 Z " fill="rgb(0,0,0)"/></g></g></svg>