<?xml version="1.0" standalone="no"?><!-- Generator: Gravit.io --><svg xmlns="http://www.w3.org/2000/svg" xmlns:xlink="http://www.w3.org/1999/xlink" style="isolation:isolate" viewBox="0 0 512 512" width="512" height="512"><defs><clipPath id="_clipPath_KYiTdCNHkHHJ6rhCxPVlA0vS9r6quOty"><rect width="512" height="512"/></clipPath></defs><g clip-path="url(#_clipPath_KYiTdCNHkHHJ6rhCxPVlA0vS9r6quOty)"><path d=" M 447.263 304.789 L 446.898 299.779 C 441.034 223.428 405.483 175.564 374.12 133.348 C 345.079 94.256 319.997 60.497 319.997 10.686 C 319.997 6.686 317.757 3.03 314.205 1.196 C 310.642 -0.648 306.362 -0.346 303.123 2.008 C 256.02 35.715 216.72 92.526 202.991 146.732 C 193.461 184.47 192.2 226.896 192.023 254.916 C 148.524 245.624 138.671 180.553 138.567 179.845 C 138.077 176.47 136.015 173.533 133.015 171.929 C 129.984 170.346 126.421 170.231 123.348 171.752 C 121.068 172.856 67.361 200.147 64.236 309.122 C 64.017 312.746 64.007 316.371 64.007 320.006 C 64.007 425.867 150.138 511.999 256 511.999 C 361.861 511.999 447.992 425.867 447.992 320.006 C 447.992 314.694 447.628 309.737 447.263 304.789 Z " fill="rgb(48,60,66)"/><path d=" M 192.002 422.492 C 192.002 421.211 191.992 419.919 192.085 418.336 C 192.512 402.483 195.523 391.66 198.825 384.463 C 205.012 397.754 216.084 409.972 234.042 409.972 C 239.938 409.972 244.709 405.201 244.709 399.305 C 244.709 384.118 245.022 366.598 248.803 350.786 C 252.168 336.756 260.208 321.849 270.396 309.892 C 274.927 325.412 283.76 337.973 292.385 350.234 C 304.729 367.775 317.488 385.91 319.728 416.836 C 319.863 418.668 319.999 420.512 319.999 422.491 C 319.999 460.084 291.292 490.666 256.001 490.666 C 220.711 490.666 192.002 460.085 192.002 422.492 Z " fill="rgb(255,255,255)"/><path d=" M 323.409 477.063 C 334.481 461.965 341.33 443.302 341.33 422.825 C 341.33 420.315 341.174 417.981 340.861 413.618 C 338.33 378.796 323.195 357.276 309.832 338.287 C 298.447 322.121 288.624 308.154 288.624 288.341 C 288.624 284.289 286.332 280.592 282.708 278.79 C 279.104 276.977 274.75 277.384 271.531 279.832 C 251.074 295.289 234.011 321.309 228.054 346.152 C 225.012 358.892 223.95 372.672 223.575 384.005 C 216.179 376.047 213.887 361.298 213.867 361.1 C 213.388 357.673 211.284 354.683 208.211 353.09 C 205.159 351.507 201.504 351.465 198.431 353.048 C 195.743 354.423 172.13 367.964 170.776 417.774 C 170.682 419.462 170.672 421.149 170.672 422.826 C 170.672 443.303 177.521 461.966 188.593 477.064 C 127.931 450.87 85.342 390.505 85.342 320.341 C 85.342 317.143 85.332 313.956 85.55 310.403 C 87.383 246.469 107.841 214.761 121.195 200.773 C 130.506 234.104 154.901 277.676 202.67 277.676 C 208.566 277.676 213.337 272.905 213.337 267.009 C 213.337 231.312 214.139 190.064 223.681 152.294 C 234.513 109.504 264.189 63.298 300.011 32.018 C 305.959 77.704 330.843 111.203 356.999 146.399 C 388.092 188.251 420.236 231.53 425.621 301.612 L 425.986 306.716 C 426.319 311.153 426.663 315.58 426.663 320.34 C 426.66 390.505 384.071 450.869 323.409 477.063 Z " fill="rgb(255,255,255)"/><linearGradient id="_lgradient_0" x1="0.0966329821614583" y1="0.3530057401904481" x2="0.9832210714131688" y2="0.766402266946018" gradientTransform="matrix(383.986,0,0,511.999,64.007,0)" gradientUnits="userSpaceOnUse"><stop offset="0%" stop-opacity="0.2" style="stop-color:rgb(255,255,255)"/><stop offset="100%" stop-opacity="0" style="stop-color:rgb(255,255,255)"/></linearGradient><path d=" M 447.263 304.789 L 446.898 299.779 C 441.034 223.428 405.483 175.564 374.12 133.348 C 345.079 94.256 319.997 60.497 319.997 10.686 C 319.997 6.686 317.757 3.03 314.205 1.196 C 310.642 -0.648 306.362 -0.346 303.123 2.008 C 256.02 35.715 216.72 92.526 202.991 146.732 C 193.461 184.47 192.2 226.896 192.023 254.916 C 148.524 245.624 138.671 180.553 138.567 179.845 C 138.077 176.47 136.015 173.533 133.015 171.929 C 129.984 170.346 126.421 170.231 123.348 171.752 C 121.068 172.856 67.361 200.147 64.236 309.122 C 64.017 312.746 64.007 316.371 64.007 320.006 C 64.007 425.867 150.138 511.999 256 511.999 C 361.861 511.999 447.992 425.867 447.992 320.006 C 447.992 314.694 447.628 309.737 447.263 304.789 Z " fill="url(#_lgradient_0)"/></g></svg>