<svg height="512pt" viewBox="0 0 512.00036 512" width="512pt" xmlns="http://www.w3.org/2000/svg"><path d="m503.464844 0h-494.929688c-4.714844 0-8.535156 3.820312-8.535156 8.535156v494.933594c0 4.710938 3.820312 8.53125 8.535156 8.53125h42.664063c3.917969 0 7.332031-2.667969 8.277343-6.46875l6.921876-27.664062h379.203124l6.921876 27.664062c.949218 3.800781 4.359374 6.46875 8.277343 6.46875h42.667969c4.710938 0 8.53125-3.820312 8.53125-8.53125v-494.933594c0-4.714844-3.820312-8.535156-8.535156-8.535156zm-458.929688 494.933594h-27.46875v-17.066406h31.734375zm450.398438 0h-27.46875l-4.265625-17.066406h31.734375zm0-34.132813h-477.867188v-443.734375h477.867188zm0 0"/><path d="m34.132812 273.066406h17.066407v145.066406c0 4.714844 3.820312 8.535157 8.535156 8.535157h392.53125c4.714844 0 8.535156-3.820313 8.535156-8.535157v-51.199218h8.53125c4.714844 0 8.535157-3.820313 8.535157-8.535156v-51.199219c0-4.710938-3.820313-8.53125-8.535157-8.53125h-8.53125v-119.46875h8.53125c4.714844 0 8.535157-3.820313 8.535157-8.53125v-51.199219c0-4.714844-3.820313-8.535156-8.535157-8.535156h-8.53125v-51.199219c0-4.714844-3.820312-8.535156-8.535156-8.535156h-392.53125c-4.714844 0-8.535156 3.820312-8.535156 8.535156v145.066406h-17.066407c-4.710937 0-8.53125 3.820313-8.53125 8.53125v51.203125c0 4.710938 3.820313 8.53125 8.53125 8.53125zm426.667969 76.800782h-25.601562v-34.132813h25.601562zm0-221.867188v34.132812h-25.601562v-34.132812zm-392.535156-59.734375h375.46875v42.667969h-17.066406c-4.714844 0-8.535157 3.820312-8.535157 8.535156v51.199219c0 4.710937 3.820313 8.53125 8.535157 8.53125h17.066406v119.46875h-17.066406c-4.714844 0-8.535157 3.820312-8.535157 8.53125v51.199219c0 4.714843 3.820313 8.535156 8.535157 8.535156h17.066406v42.667968h-375.46875v-136.535156h17.066406c4.714844 0 8.535157-3.820312 8.535157-8.53125v-51.203125c0-4.710937-3.820313-8.53125-8.535157-8.53125h-17.066406zm-25.597656 153.601563h34.132812v34.132812h-34.132812zm0 0"/><path d="m256 217.601562c18.851562 0 34.132812-15.285156 34.132812-34.132812 0-18.851562-15.28125-34.136719-34.132812-34.136719s-34.132812 15.285157-34.132812 34.136719c0 18.847656 15.28125 34.132812 34.132812 34.132812zm0-51.203124c9.425781 0 17.066406 7.644531 17.066406 17.070312 0 9.421875-7.640625 17.066406-17.066406 17.066406s-17.066406-7.644531-17.066406-17.066406c0-9.425781 7.640625-17.070312 17.066406-17.070312zm0 0"/><path d="m256 281.601562c-23.5625-.125-42.765625 18.878907-42.886719 42.441407-.125 23.566406 18.878907 42.765625 42.445313 42.890625 13.503906.070312 26.25-6.261719 34.351562-17.066406h59.957032c14.136718 0 25.597656-11.460938 25.597656-25.601563 0-14.136719-11.460938-25.597656-25.597656-25.597656h-59.957032c-7.988281-10.707031-20.550781-17.027344-33.910156-17.066407zm0 68.265626c-14.136719 0-25.601562-11.460938-25.601562-25.601563 0-14.136719 11.464843-25.597656 25.601562-25.597656s25.601562 11.460937 25.601562 25.597656c0 14.140625-11.464843 25.601563-25.601562 25.601563zm41.8125-34.132813h52.054688c4.710937 0 8.53125 3.820313 8.53125 8.53125 0 4.714844-3.820313 8.535156-8.53125 8.535156h-52.054688c1.148438-5.632812 1.148438-11.4375 0-17.066406zm0 0"/><path d="m256 264.535156c44.773438 0 81.066406-36.296875 81.066406-81.066406 0-44.773438-36.292968-81.070312-81.066406-81.070312s-81.066406 36.296874-81.066406 81.070312c.050781 44.75 36.316406 81.011719 81.066406 81.066406zm-51.199219-89.601562h-12.160156c1.472656-10.992188 5.796875-21.410156 12.542969-30.214844l8.535156 8.582031c3.332031 3.335938 8.734375 3.335938 12.070312.003907 3.332032-3.332032 3.335938-8.734376.003907-12.070313l-8.585938-8.582031c8.816407-6.753906 19.25-11.078125 30.257813-12.546875v12.160156c0 4.714844 3.824218 8.535156 8.535156 8.535156s8.535156-3.820312 8.535156-8.535156v-12.160156c10.992188 1.476562 21.410156 5.800781 30.214844 12.546875l-8.585938 8.582031c-3.332031 3.335937-3.328124 8.738281.003907 12.070313 3.335937 3.332031 8.738281 3.332031 12.070312-.003907l8.535157-8.582031c6.746093 8.804688 11.070312 19.21875 12.542968 30.214844h-12.117187c-4.710938 0-8.53125 3.820312-8.53125 8.535156 0 4.710938 3.820312 8.53125 8.53125 8.53125h12.160156c-1.472656 10.992188-5.796875 21.410156-12.542969 30.21875l-8.535156-8.585938c-3.332031-3.335937-8.734375-3.335937-12.070312-.003906-3.332032 3.332032-3.335938 8.734375-.003907 12.070313l8.585938 8.582031c-8.816407 6.753906-19.25 11.078125-30.257813 12.546875v-12.160156c0-4.714844-3.824218-8.535157-8.535156-8.535157s-8.535156 3.820313-8.535156 8.535157v12.160156c-10.992188-1.476563-21.410156-5.800781-30.214844-12.546875l8.585938-8.582031c3.332031-3.335938 3.328124-8.738281-.003907-12.070313-3.335937-3.332031-8.738281-3.332031-12.070312.003906l-8.535157 8.585938c-6.746093-8.808594-11.070312-19.222656-12.542968-30.21875h12.117187c4.710938 0 8.53125-3.820312 8.53125-8.53125 0-4.714844-3.820312-8.535156-8.53125-8.535156zm0 0"/></svg>