<svg xmlns="http://www.w3.org/2000/svg" width="50" height="50" style=""><rect id="backgroundrect" width="100%" height="100%" x="0" y="0" fill="none" stroke="none"/>
    
<g class="currentLayer" style=""><title>Layer 1</title><path d="M 25 3 C 18.935 3 14 7.935 14 14 C 14 20.065 18.935 25 25 25 C 31.065 25 36 20.065 36 14 C 36 7.935 31.065 3 25 3 z M 24 7 L 24.095703 7 L 25.917969 7 L 25.998047 7 L 25.998047 8.7714844 C 26.731047 8.9084844 27.369469 9.25025 27.855469 9.78125 C 28.410469 10.38925 28.725609 11.224 28.724609 12 L 26.869141 12 C 26.818141 11.207 26.445297 10.335937 25.029297 10.335938 C 23.728297 10.335938 23.123047 10.846406 23.123047 11.941406 C 23.123047 12.856406 23.940719 13.089875 25.386719 13.421875 C 26.996719 13.791875 29.001 14.251578 29 16.642578 C 29 17.097578 28.846 19.303625 26 19.765625 L 26 21 L 25.917969 21 L 24.097656 21 L 24.001953 21 L 24.001953 19.734375 C 22.055953 19.364375 21.073672 18.164453 21.013672 16.064453 L 21.011719 16 L 22.869141 16 L 22.867188 16.0625 C 22.850188 16.7255 23.023812 17.244516 23.382812 17.603516 C 23.990813 18.211516 24.960953 18.21875 25.001953 18.21875 C 26.867953 18.21875 27.146484 17.23925 27.146484 16.65625 C 27.146484 15.68425 26.328813 15.452906 24.882812 15.128906 C 23.271812 14.768906 21.267578 14.321703 21.267578 11.845703 C 21.267578 11.566703 21.352 9.2135312 24 8.7695312 L 24 7 z M 13.400391 24.900391 C 10.900391 24.900391 8.7 25.8 0.5 29.5 C -1.7763568e-15 29.7 -0.2 30.300781 0 30.800781 L 5.3007812 42.599609 C 5.4007812 42.899609 5.7003906 43.099219 5.9003906 43.199219 C 6.2003906 43.299219 6.4992188 43.199609 6.6992188 43.099609 L 9.4003906 41.300781 C 10.600391 40.500781 11.099219 40.399219 12.699219 41.199219 L 14.800781 42.300781 C 17.300781 43.600781 20.699219 45.400391 21.699219 45.900391 C 23.299219 46.700391 24.599219 47 25.699219 47 C 27.699219 47 28.999219 46.200391 30.199219 45.400391 C 31.399219 44.600391 46.000781 35.099219 47.300781 34.199219 C 48.900781 33.099219 49.900391 31.800781 49.900391 30.800781 C 50.000391 28.000781 47.300391 27.300781 44.900391 28.800781 L 34.199219 36 C 32.499219 37 31 36.900391 30 36.900391 L 24 36.900391 C 21.3 36.900391 18.000391 35.900391 17.900391 35.900391 C 17.600391 35.800391 17.499609 35.500781 17.599609 35.300781 C 17.699609 35.000781 17.899219 34.9 18.199219 35 L 18.300781 35 C 18.600781 35.1 21.900781 36 24.300781 36 L 30 36 C 30.8 36 31.400781 35.8 31.800781 35.5 C 32.200781 35.2 32.499219 34.9 32.699219 34.5 C 32.699219 34.4 32.800781 34.400781 32.800781 34.300781 L 32.800781 34.199219 C 32.900781 33.899219 32.900391 33.700391 32.900391 33.400391 C 32.900391 32.200391 31.900391 31.000391 29.900391 30.900391 C 28.300391 30.800391 26.100781 30.400391 24.300781 29.900391 C 23.300781 29.600391 22.599219 29.299609 22.199219 29.099609 C 21.899219 28.899609 21.599219 28.599219 21.199219 28.199219 C 19.999219 26.899219 18.200391 24.900391 13.400391 24.900391 z M 35.099609 24.900391 C 33.999609 24.900391 32.800781 25.3 31.800781 26 C 31.100781 26.4 28.100781 28.300391 26.300781 29.400391 C 27.600781 29.700391 29 29.900391 30 29.900391 C 30.7 29.900391 31.400391 30.100781 31.900391 30.300781 L 38.400391 25.900391 C 38.400391 25.900391 36.899609 24.900391 35.099609 24.900391 z M 41.699219 26 C 40.699219 26 39.500781 26.4 37.800781 27.5 L 32.800781 30.900391 C 33.600781 31.600391 34 32.500391 34 33.400391 C 34 34.000391 33.800391 34.700781 33.400391 35.300781 L 33.5 35.199219 L 33.599609 35.099609 L 44.599609 27.800781 C 44.299609 26.500781 42.699219 26 41.699219 26 z" id="svg_1" class="" fill="#ffffff" fill-opacity="1"/></g></svg>