<svg xmlns="http://www.w3.org/2000/svg" xmlns:xlink="http://www.w3.org/1999/xlink" version="1.1" id="Capa_1" x="0px" y="0px" viewBox="0 0 512 512" style="enable-background:new 0 0 512 512;" xml:space="preserve">
<g>
	<g>
		<g>
			<path d="M338,266c-33.084,0-60,26.916-60,60s26.916,60,60,60s60-26.916,60-60S371.084,266,338,266z M338,346     c-11.028,0-20-8.972-20-20s8.972-20,20-20s20,8.972,20,20S349.028,346,338,346z"></path>
			<path d="M233,186c0-33.084-26.916-60-60-60s-60,26.916-60,60s26.916,60,60,60S233,219.084,233,186z M153,186     c0-11.028,8.972-20,20-20s20,8.972,20,20s-8.972,20-20,20S153,197.028,153,186z"></path>
			<path d="M437.02,74.98C388.667,26.629,324.38,0,256,0S123.333,26.629,74.98,74.98C26.629,123.333,0,187.62,0,256     s26.629,132.667,74.98,181.02C123.333,485.371,187.62,512,256,512s132.667-26.629,181.02-74.98     C485.371,388.667,512,324.38,512,256S485.371,123.333,437.02,74.98z M256,472c-119.103,0-216-96.897-216-216S136.897,40,256,40     s216,96.897,216,216S375.103,472,256,472z"></path>
			<polygon points="298.13,136 168.401,376 213.87,376 343.599,136    "></polygon>
		</g>
	</g>
</g>
<g>
</g>
<g>
</g>
<g>
</g>
<g>
</g>
<g>
</g>
<g>
</g>
<g>
</g>
<g>
</g>
<g>
</g>
<g>
</g>
<g>
</g>
<g>
</g>
<g>
</g>
<g>
</g>
<g>
</g>
</svg>