<?xml version="1.0" encoding="utf-8"?>
<!-- Svg Vector Icons : http://www.onlinewebfonts.com/icon -->
<!DOCTYPE svg PUBLIC "-//W3C//DTD SVG 1.1//EN" "http://www.w3.org/Graphics/SVG/1.1/DTD/svg11.dtd">
<svg version="1.1" xmlns="http://www.w3.org/2000/svg" xmlns:xlink="http://www.w3.org/1999/xlink" x="0px" y="0px" viewBox="0 0 1000 1000" enable-background="new 0 0 1000 1000" xml:space="preserve">
<metadata> Svg Vector Icons : http://www.onlinewebfonts.com/icon </metadata>
<g><path d="M637.9,745c-33.9,0-61.3,27.4-61.3,61.3v30.6c0,16.8-13.7,30.6-30.6,30.6H178.5c-16.8,0-30.6-13.7-30.6-30.6V163.1c0-16.8,13.7-30.6,30.6-30.6H546c16.9,0,30.6,13.7,30.6,30.6v34.5c0,33.9,27.4,61.3,61.3,61.3c33.9,0,61.3-27.4,61.3-61.3v-34.5C699.1,78.7,630.5,10,546,10H178.5C94.1,10,25.4,78.7,25.4,163.1v673.8c0,84.4,68.7,153.1,153.1,153.1H546c84.4,0,153.1-68.7,153.1-153.1v-30.6C699.1,772.4,671.8,745,637.9,745z"/><path d="M974.4,503.8c0.3-5.3,0.3-10.5-0.8-15.8c0-0.2-0.1-0.3-0.1-0.4c-1-5-2.9-9.8-5.2-14.5c-0.6-1.1-1.2-2.2-1.8-3.4c-2.7-4.7-5.7-9.2-9.7-13L802.5,302.3c-23.9-23.9-62.7-23.9-86.7,0c-23.9,23.9-23.9,62.7,0,86.7l49.9,49.9H423.5c-33.9-0.1-61.3,27.3-61.3,61.2c0,33.9,27.4,61.3,61.3,61.3h342.1l-48.6,48.6c-23.9,23.9-23.9,62.7,0,86.7c11.9,11.9,27.6,18,43.3,18c15.6,0,31.4-6,43.3-18l153.1-153.1c1-1,1.6-2,2.4-2.9c0.9-1,1.8-2.1,2.7-3.2c3.3-4.2,6-8.6,8-13.4c0.1-0.1,0.2-0.2,0.2-0.3v-0.1c2.1-5.1,3.3-10.4,3.9-15.7C974.2,506.4,974.3,505.1,974.4,503.8z"/></g>
</svg>