<svg xmlns="http://www.w3.org/2000/svg" xmlns:xlink="http://www.w3.org/1999/xlink" version="1.1" id="Capa_1" x="0px" y="0px" viewBox="0 0 384.001 384.001" style="enable-background:new 0 0 384.001 384.001;" xml:space="preserve">
<g>
	<g>
		<path d="M309.52,0H74.48c-8.837,0-16,7.163-16,16v309.28c0,8.837,7.163,16,16,16h24.88V376c0,4.418,3.581,8,7.999,8.001    c2.339,0,4.561-1.023,6.081-2.801l17.6-20.48l17.6,20.48c2.872,3.358,7.922,3.752,11.279,0.881    c1.777-1.52,2.801-3.742,2.801-6.081v-34.72h146.8c8.837,0,16-7.163,16-16V16C325.52,7.163,318.357,0,309.52,0z M137.12,342.96    c-2.872-3.358-7.922-3.752-11.279-0.881c-0.316,0.27-0.61,0.565-0.881,0.881l-9.6,11.2v-30.4c10.107,3.807,21.253,3.807,31.36,0    l0,30.4L137.12,342.96z M160.08,281.2c0.001,16.091-12.95,29.185-29.04,29.36h-0.32c-16.215,0-29.36-13.145-29.36-29.36    c0-16.215,13.145-29.36,29.36-29.36S160.08,264.985,160.08,281.2C160.08,281.2,160.08,281.2,160.08,281.2z M309.12,325.2h-146.4    v-11.6c17.929-17.496,18.28-46.215,0.784-64.144c-17.496-17.929-46.215-18.28-64.144-0.784    c-17.929,17.496-18.28,46.215-0.784,64.144c0.258,0.265,0.519,0.526,0.784,0.784v11.6H74.48V16h235.04L309.12,325.2z" style="fill: rgb(255, 255, 255);"></path>
	</g>
</g>
<g>
	<g>
		<path d="M261.52,63.28H122.48c-4.418,0-8,3.582-8,8s3.582,8,8,8h139.04c4.418,0,8-3.582,8-8S265.939,63.28,261.52,63.28z" style="fill: rgb(255, 255, 255);"></path>
	</g>
</g>
<g>
	<g>
		<path d="M261.52,109.28H122.48c-4.418,0-8,3.582-8,8s3.582,8,8,8h139.04c4.418,0,8-3.582,8-8S265.939,109.28,261.52,109.28z" style="fill: rgb(255, 255, 255);"></path>
	</g>
</g>
<g>
	<g>
		<path d="M261.52,155.28H122.48c-4.418,0-8,3.582-8,8s3.582,8,8,8h139.04c4.418,0,8-3.582,8-8S265.939,155.28,261.52,155.28z" style="fill: rgb(255, 255, 255);"></path>
	</g>
</g>
<g>
	<g>
		<path d="M261.52,201.28H122.48c-4.418,0-8,3.582-8,8s3.582,8,8,8h139.04c4.418,0,8-3.582,8-8S265.939,201.28,261.52,201.28z" style="fill: rgb(255, 255, 255);"></path>
	</g>
</g>
<g>
	<g>
		<path d="M261.52,247.28H198c-4.418,0-8,3.582-8,8s3.582,8,8,8h63.52c4.418,0,8-3.582,8-8S265.939,247.28,261.52,247.28z" style="fill: rgb(255, 255, 255);"></path>
	</g>
</g>
<g>
</g>
<g>
</g>
<g>
</g>
<g>
</g>
<g>
</g>
<g>
</g>
<g>
</g>
<g>
</g>
<g>
</g>
<g>
</g>
<g>
</g>
<g>
</g>
<g>
</g>
<g>
</g>
<g>
</g>
</svg>