<?xml version="1.0" standalone="no"?><!-- Generator: Gravit.io --><svg xmlns="http://www.w3.org/2000/svg" xmlns:xlink="http://www.w3.org/1999/xlink" style="isolation:isolate" viewBox="0 0 2000 2000" width="2000" height="2000"><defs><clipPath id="_clipPath_pQVL4pFpNLNhpKlh6Fdw3x0cXiDjP4O8"><rect width="2000" height="2000"/></clipPath></defs><g clip-path="url(#_clipPath_pQVL4pFpNLNhpKlh6Fdw3x0cXiDjP4O8)"><path d=" M 8 1002 C 8 456.708 450.708 14 996 14 C 1541.292 14 1984 456.708 1984 1002 C 1984 1547.292 1541.292 1990 996 1990 C 450.708 1990 8 1547.292 8 1002 Z " fill="rgb(209,92,34)"/><path d=" M 25.25 1003 C 25.25 468.47 459.22 34.5 993.75 34.5 C 1528.28 34.5 1962.25 468.47 1962.25 1003 C 1962.25 1537.53 1528.28 1971.5 993.75 1971.5 C 459.22 1971.5 25.25 1537.53 25.25 1003 Z " fill="rgb(251,249,249)"/><path d=" M 93 1003.125 C 93 503.711 498.461 98.25 997.875 98.25 C 1497.289 98.25 1902.75 503.711 1902.75 1003.125 C 1902.75 1502.539 1497.289 1908 997.875 1908 C 498.461 1908 93 1502.539 93 1003.125 Z " fill="rgb(209,92,34)"/><g><path d=" M 331.75 408 L 406.718 538.805 L 666.951 609.992 L 705.296 573.953 L 688.062 507.216 L 700.557 506.771 Q 755.887 512.812 816.886 513 Q 870.758 511.681 915.12 500.542 Q 965.392 491.057 1028.003 494.314 L 1034.465 495.648 L 1049.545 497.873 L 1106.848 506.326 C 1138.162 512.183 1169.501 512.585 1201.204 512.11 C 1234.658 511.609 1267.957 510.396 1301.161 505.881 L 1301.161 505.881 L 1301.592 508.996 L 1285.22 574.843 L 1312.794 599.758 C 1315.072 605.118 1319.828 608.145 1325.289 609.102 L 1325.289 609.102 L 1587.676 534.801 L 1655.319 414.229 L 1655.75 421.792 Q 1651.38 441.305 1651.442 465.394 Q 1648.641 467.396 1650.58 474.292 L 1649.718 478.742 L 1648.426 491.644 L 1640.67 570.839 C 1637.94 583.084 1637.027 595.541 1636.766 608.074 C 1636.591 616.549 1639.853 628.63 1631.192 634.017 L 1631.192 634.017 L 1445.496 789.292 C 1445.125 792.473 1445.6 796.163 1448.942 797.301 L 1448.942 797.301 L 1461.006 811.538 L 1494.612 852.47 L 1452.389 882.725 Q 1465.654 950.891 1467.9 1030.436 Q 1461.824 1076.662 1459.283 1126.538 Q 1462.514 1128.985 1460.144 1137.216 Q 1457.99 1138.551 1459.283 1143.445 L 1459.283 1162.131 C 1466.873 1212.651 1477.513 1262.729 1492.027 1311.623 L 1492.027 1311.623 L 1490.735 1312.068 L 1457.128 1301.39 Q 1452.389 1297.386 1443.341 1297.831 Q 1420.483 1487.785 1360.618 1639.525 L 1355.017 1634.631 L 1283.065 1558.551 L 1281.773 1558.996 L 1208.098 1724.949 L 1138.3 1583.466 L 1136.146 1584.801 L 994.396 1878 L 850.493 1582.576 L 849.2 1583.021 L 780.695 1725.839 L 727.701 1605.267 C 722.227 1589.009 715.261 1573.262 706.589 1558.551 L 706.589 1558.551 L 628.174 1642.195 C 586.421 1531.627 560.137 1415.266 544.59 1297.831 L 544.59 1297.831 L 497.196 1312.958 L 497.627 1311.623 C 497.433 1303.418 498.444 1294.667 502.797 1287.597 L 502.797 1287.597 L 520.031 1211.962 Q 531.805 1177.404 530.372 1129.208 Q 525.656 1125.179 529.079 1112.746 Q 528.884 1086.252 525.201 1063.36 Q 520.254 1031.986 522.616 993.064 Q 527.564 935.885 537.265 883.614 L 493.318 854.25 L 533.387 807.534 C 540.134 803.955 544.648 797.633 546.744 790.182 L 546.744 790.182 L 357.17 631.792 L 331.75 408 Z " fill="rgb(32,32,32)"/><path d=" M 972.854 558.381 Q 1002.073 556.683 1026.279 560.161 Q 1044.981 563.984 1067.21 564.165 Q 1078.593 562.643 1084.444 566.835 Q 1087.034 577.063 1093.492 583.297 L 1115.465 617.555 L 1199.05 751.03 L 1197.757 751.475 L 1048.683 698.975 L 1048.252 708.318 C 1051.492 710.985 1050.767 716.25 1049.976 719.886 L 1049.976 719.886 L 1052.992 746.136 L 1062.04 823.996 C 1017.656 828.933 972.858 827.969 928.363 825.253 C 858.462 820.985 788.632 810.583 721.238 790.627 L 721.238 790.627 L 722.961 793.297 Q 767.101 830.025 823.349 854.25 Q 819.72 862.96 819.041 874.716 Q 821.008 897.155 834.982 907.195 Q 845.54 918.983 867.727 918.763 Q 889.051 918.092 897.455 904.081 Q 905.398 894.041 909.088 879.61 Q 952.533 888.137 1003.875 888.508 Q 1038.558 888.286 1067.641 882.28 Q 1079.081 962.563 1086.167 1047.343 L 1083.151 1051.347 L 1081.859 1051.792 L 1064.194 1070.924 L 1062.04 1069.589 L 1026.279 1013.975 L 975.008 1058.021 C 970.859 1065.835 963.816 1071.077 955.62 1073.593 L 955.62 1073.593 L 890.992 1004.186 L 821.195 1075.373 L 724.685 972.153 L 724.254 973.487 L 767.77 1168.805 L 779.402 1220.86 L 783.711 1240.436 C 783.488 1242.815 783.728 1245.682 785.865 1247.11 L 785.865 1247.11 L 852.216 1181.263 C 858.228 1190.237 862.227 1200.502 864.711 1211.072 L 864.711 1211.072 L 883.668 1260.013 L 891.854 1278.254 L 961.652 1187.492 C 967.138 1196.129 971.223 1205.658 974.146 1215.521 L 974.146 1215.521 L 1000.428 1278.254 L 1065.056 1177.703 L 1096.508 1227.089 C 1108.312 1237.136 1110.299 1254.112 1109.433 1268.911 L 1109.433 1268.911 L 1118.05 1349.886 L 1117.188 1349.886 L 1068.502 1280.034 Q 1058.361 1324.731 1053.423 1374.801 Q 1033.507 1481.036 1018.524 1592.364 L 1006.029 1672.004 C 1005.737 1685.78 1003.172 1700.185 995.258 1711.602 L 995.258 1711.602 L 993.965 1711.157 L 852.216 1420.627 L 782.418 1567.449 L 781.126 1567.004 L 724.685 1440.203 L 698.403 1466.453 L 697.972 1467.788 L 657.472 1508.72 C 650.553 1491.121 646.593 1472.389 644.547 1453.551 L 644.547 1453.551 L 612.664 1312.958 L 601.893 1265.352 C 602.276 1257.537 600.906 1248.678 594.137 1243.996 L 594.137 1243.996 L 578.627 1223.53 Q 598.82 1159.403 592.414 1067.809 Q 588.105 1064.25 591.552 1052.682 L 591.552 1009.081 C 594.766 961.758 599.55 914.539 606.201 867.597 L 606.201 867.597 L 591.552 834.674 Q 622.726 796.569 645.839 750.14 Q 654.953 721.733 673.414 702.979 Q 689.31 679.797 709.174 660.712 Q 732.059 637.628 757.86 617.555 Q 767.59 608.916 764.754 587.301 Q 761.684 580.683 762.168 570.394 L 824.642 569.949 Q 826.365 572.619 832.397 570.839 Q 906.04 568.136 972.854 558.381 Z " fill="rgb(253,253,253)"/><path d=" M 1084.013 565.5 C 1129.8 570.28 1175.884 571.749 1221.885 570.839 L 1221.885 570.839 L 1225.332 569.949 L 1228.347 571.284 C 1218.431 585.941 1225.181 609.258 1235.585 621.538 C 1242.381 629.561 1251.914 635.186 1259.773 641.997 C 1282.759 661.914 1304.314 685.063 1321.602 710.456 C 1334.364 729.2 1343.602 749.84 1354.605 769.641 C 1367.784 793.36 1382.285 816.299 1398.102 838.233 L 1398.102 838.233 L 1387.762 859.589 Q 1384.048 864.208 1383.453 872.047 Q 1402.977 968.009 1398.964 1088.275 Q 1395.925 1106.494 1397.24 1129.208 Q 1398.945 1183.951 1411.889 1227.089 L 1396.379 1243.996 C 1388.732 1250.119 1386.248 1260.237 1386.038 1269.801 L 1386.038 1269.801 L 1375.267 1318.297 L 1345.108 1452.661 C 1342.545 1471.709 1338.436 1490.588 1332.182 1508.72 L 1332.182 1508.72 L 1283.065 1458 L 1271.002 1445.542 C 1270.044 1443.031 1267.831 1438.76 1265.401 1442.428 L 1265.401 1442.428 L 1208.959 1568.339 L 1138.3 1418.847 L 1003.013 1695.585 L 1002.582 1691.581 L 1006.029 1672.004 L 1015.077 1614.61 L 1049.545 1396.602 L 1063.332 1309.398 L 1066.348 1290.267 C 1066.053 1286.805 1066.251 1282.835 1068.502 1280.034 L 1068.502 1280.034 L 1117.619 1350.331 L 1118.05 1345.436 C 1115.395 1343.538 1116.456 1339.141 1117.188 1336.538 L 1117.188 1336.538 L 1116.327 1332.089 L 1115.034 1320.076 L 1106.848 1243.996 L 1107.71 1243.996 L 1127.96 1276.475 C 1130.174 1269.628 1130.735 1262.295 1130.545 1255.119 L 1130.545 1255.119 L 1135.715 1204.398 C 1135.165 1194.56 1135.708 1184.322 1139.162 1175.034 L 1139.162 1175.034 L 1199.481 1236.432 L 1263.677 988.614 L 1258.076 993.508 L 1171.906 1073.593 L 1131.406 1001.517 L 1086.598 1046.898 L 1077.55 962.809 C 1073.682 950.017 1074.724 937.183 1073.811 924.07 C 1072.816 909.784 1071.042 895.636 1067.21 881.835 L 1067.21 881.835 L 1081.428 879.61 C 1084.087 892.84 1090.801 905.731 1102.027 913.23 C 1124.461 928.218 1158.992 918.042 1168.836 891.901 C 1172.246 882.848 1171.876 872.597 1170.614 863.148 L 1170.614 863.148 L 1167.167 853.36 C 1203.396 839.135 1237.437 818.842 1266.262 791.962 L 1266.262 791.962 L 1264.108 791.517 Q 1170.915 815.853 1062.47 824.441 Q 1051.63 765.783 1048.252 699.419 L 1049.545 698.975 L 1198.619 751.475 L 1198.188 750.14 L 1115.465 618.445 L 1094.784 584.631 C 1089.474 579.457 1085.688 572.85 1084.013 565.5 L 1084.013 565.5 L 1084.013 565.5 Z  M 825.503 569.949 L 832.828 570.394 L 825.503 570.839 L 825.503 569.949 L 825.503 569.949 Z " fill-rule="evenodd" fill="rgb(0,149,253)"/></g></g></svg>