<svg xmlns="http://www.w3.org/2000/svg" width="94.3057861328125" height="100.65289306640625" style=""><rect id="backgroundrect" width="100%" height="100%" x="0" y="0" fill="none" stroke="none" class="" style=""/>
 <!-- Created with Method Draw - http://github.com/duopixel/Method-Draw/ -->
 <defs>
  <filter height="300%" width="300%" y="0" x="0" id="svg_23_blur">
   <feGaussianBlur stdDeviation="0" in="SourceGraphic"/>
  </filter>
 </defs>
 
 <g style="" class="currentLayer">
  <title>Layer 1</title>
  <path filter="url(#svg_23_blur)" id="svg_15" d="m2.4747783459472714,3.7409874291992082 l1.5000200000000001,15.25014 l12.75011,9.25008 l-3.75003,2.00002 l3.25002,2.50002 l-0.5,6.00005 l0,10.75009 l0,4.50004 l-2.25002,5.75005 l3.75003,-0.7500000000000002 l1.25001,9.00007 l4.25004,13.50012 l5.00004,-6.25005 l5.25005,11.5001 l4.75004,-10.25009 l10.00009,20.25017 l8.250070000000001,-20.00017 l4.75004,9.25008 l5.00004,-10.50009 l5.50005,5.50005 l4.25004,-14.25013 l1.25001,-7.75006 l3.75003,1.50001 l-2.25002,-7.25006 l-0.25,-4.75005 l0,-15.75013 l2.75002,-2.75003 l-3.5000299999999998,-2.75002 l13.00011,-9.25008 l1.00001,-15.50013 l-5.25004,8.500070000000001 l-17.25015,4.50004 l-1.7500200000000001,-2.00002 l0.7500100000000002,-4.25003 l-12.0001,-0.125 l-9.00008,-0.3750000000000001 l-8.75008,0.3750000000000001 l-12.2501,-0.12501 l1.75001,4.25004 l-2.25002,1.50001 l-16.25014,-3.75003 l-3.2500299999999998,-3.62503 l-1.6250200000000001,-1.8125200000000001 l-1.62501,-1.8125200000000001 z" stroke="#7a3027" fill="#7a3027" class=""/>
  <g id="svg_25" class="" fill="#ffbe41" fill-opacity="1" opacity="1">
   <g id="svg_26" fill="#ffbe41" fill-opacity="1" opacity="1">
    <path filter="url(#svg_23_blur)" id="svg_18" d="m72.66399834594728,55.614217429199215 l-3.31364,15.12736 l3.68731,-15.75014 z" fill-opacity="1" stroke-opacity="null" stroke-width="null" stroke="#7a3027" fill="#ffbe41" opacity="1"/>
    <path filter="url(#svg_23_blur)" id="svg_16" d="m31.725928345947267,16.42882742919923 l0.4991100000000001,-2.9377500000000003 l7.87507,0.25 l3.2500299999999998,-1.37501 l7.75007,0.125 l2.25002,1.3750200000000001 l7.87506,0.125 l0,2.87502 l4.62504,3.2500299999999998 l3.37503,4.00003 l2.87503,5.50005 l1.25001,0.7500100000000002 l-1.12501,1.75001 l0.7500000000000002,19.37517 l1.8750200000000001,1.7500200000000001 l-2.1868600000000002,2.25002 " fill-opacity="1" stroke-opacity="null" stroke-width="null" stroke="#7a3027" fill="#ffbe41" opacity="1"/>
    <path filter="url(#svg_23_blur)" id="svg_17" d="m69.47535834594726,71.24157742919922 l-4.87504,-4.62504 l-3.5000299999999998,7.37507 l-5.12504,-8.62508 l-8.375070000000001,18.87516 l-9.75009,-19.12516 l-4.62504,8.87508 l-4.25004,-7.87507 l-3.75003,4.50004 l-4.00003,-16.00014 l-1.6250200000000001,0 l1.00001,-3.75003 l0,-11.0001 l0.3750100000000001,-7.5000599999999995 l-1.00001,-1.5000200000000001 l1.37501,-2.12502 l10.49965,-12.62466 " stroke-opacity="null" stroke-width="null" stroke="#7a3027" fill="#ffbe41" fill-opacity="1" opacity="1"/>
   </g>
   <path id="svg_27" d="m34.01619534594727,14.821151429199233 l-9.22767,12.583194 l0,26.84414 l6.039931,9.059897 l11.576535,0.8388790000000004 l3.019966,8.221018 l6.375483,-3.691069 l4.194397,-7.046587 l9.059897,1.509983 l4.362173,7.71769 l3.187742,-16.27426 l-2.6844140000000003,-5.033276 l-2.01331,-21.475312 l-10.56988,-12.918742 l-7.549914,-1.6777590000000004 l-7.214363,0.8388790000000004 l-8.556573,0.503324 z" stroke-opacity="null" stroke-width="0" stroke="#7a3027" fill="#ffbe41" fill-opacity="1" opacity="1"/>
  </g>
  <path filter="url(#svg_23_blur)" id="svg_19" d="m29.10001134594725,26.366187429199215 l6.62506,2.000021 l22.250192,0.250002 l6.250054,-2.000017 l-5.500048,4.750041 l-0.3750030000000001,2.500022 l-1.000009,1.12501 l-1.3750120000000001,0.7500060000000002 l-2.125018,0.125001 l-1.500013,-1.250011 l-1.3750120000000001,-1.875016 l-1.000009,0.500004 l-6.125053,-0.250002 l-1.500013,-0.3750030000000001 l-0.6250050000000003,1.3750120000000001 l-0.8750080000000002,1.500013 l-1.000009,0.500004 l-1.500013,-0.125001 l-1.750015,-0.7500060000000002 l-1.250011,-1.12501 l-0.125001,-1.6250140000000002 l-0.250002,-1.250011 l-5.875054,-4.750045 z" stroke-width="null" stroke="#7a3027" fill="#7a3027" class=""/>
  <path filter="url(#svg_23_blur)" id="svg_20" d="m28.22500834594726,37.61628742919922 l6.87506,7.37506 l2.62502,-4.87504 l4.75004,5.00005 l4.37504,-5.25005 l4.50004,5.12504 l4.62504,-4.75004 l2.50002,4.62504 l7.25006,-7.62506 l-4.50004,20.00017 l-4.37503,-4.62504 l-0.8750100000000002,-0.3750000000000001 l0.6250000000000002,5.87505 l-4.87504,-5.50005 l-4.12503,6.37506 l-2.62503,-6.5000599999999995 l-4.62504,6.62506 l-2.37502,-6.5000599999999995 l-5.25004,4.87504 l-4.50004,-19.87517 z" stroke-width="NaN" stroke="#7a3027" fill="#7a3027" class=""/>
  <path filter="url(#svg_23_blur)" id="svg_21" d="m49.47518734594726,14.991088429199209 l9.250083,9.375085 l-4.8750420000000005,1.500013 " fill-opacity="null" stroke-width="0.5" stroke="#7a3027" fill="none" class=""/>
  <path filter="url(#svg_23_blur)" id="svg_22" d="m58.72526634594726,36.366273429199225 l0.0000030000000000000018,3.00003 l-0.0000030000000000000018,-3.00003 z" fill-opacity="null" stroke-opacity="null" stroke-width="NaN" stroke="#000" fill="none" class=""/>
  <path filter="url(#svg_23_blur)" id="svg_23" d="m52.60021834594727,59.86647742919922 l-0.3750000000000001,5.00005 l-3.2500299999999998,-3.7500400000000003 l-0.3750100000000001,10.8751 " fill-opacity="null" stroke-width="0.5" stroke="#7a3027" fill="none" class=""/>
 </g>
</svg>