<?xml version="1.0" standalone="no"?><!-- Generator: Gravit.io --><svg xmlns="http://www.w3.org/2000/svg" xmlns:xlink="http://www.w3.org/1999/xlink" style="isolation:isolate" viewBox="0 0 488.022 488.022" width="488.022" height="488.022"><defs><clipPath id="_clipPath_51YuluPKoVtLrw2a4CQDpSEXUV9LerLw"><rect width="488.022" height="488.022"/></clipPath></defs><g clip-path="url(#_clipPath_51YuluPKoVtLrw2a4CQDpSEXUV9LerLw)"><circle vector-effect="non-scaling-stroke" cx="212.77299999999988" cy="244.1299999999999" r="214.12999999999994" fill="rgb(255,255,255)"/><ellipse vector-effect="non-scaling-stroke" cx="432" cy="307" rx="44" ry="40" fill="rgb(255,255,255)"/><g><g><g><path d=" M 408.871 206.974 L 430.704 153.273 C 433.151 147.25 430.085 143.945 423.897 145.918 L 402.18 152.839 C 378.105 102.453 335.996 64.274 283.421 45.25 C 230.331 26.034 172.933 28.647 121.804 52.6 C 70.68 76.555 31.939 118.988 12.723 172.079 C -0.917 209.786 -3.555 249.656 4.643 287.917 C 7.989 303.532 13.138 318.875 20.081 333.691 C 44.039 384.818 86.465 423.559 139.555 442.772 C 192.648 461.989 250.046 459.376 301.172 435.418 C 308.424 432.022 315.663 428.604 322.157 424.093 C 330.776 418.106 339.849 412.788 330.943 399.753 C 321.929 386.563 304.069 396.478 286.746 404.636 C 243.884 424.82 195.682 426.931 151.124 410.807 C 106.575 394.685 70.97 362.174 50.864 319.269 C 45.039 306.831 40.717 293.959 37.908 280.855 C 31.035 248.751 33.244 215.282 44.696 183.647 C 60.82 139.093 93.326 103.483 136.228 83.384 C 179.134 63.28 227.3 61.092 271.856 77.208 C 314.485 92.649 348.893 123.1 369.392 163.291 L 346.872 170.475 C 340.682 172.449 340.098 176.92 345.576 180.417 L 394.454 211.571 C 399.939 215.061 406.425 212.991 408.871 206.974 Z " fill="rgb(0,0,0)"/><path d=" M 200.435 120.945 L 200.435 243.157 L 117.517 310.767 C 111.626 315.569 110.745 324.241 115.549 330.129 C 118.267 333.465 122.229 335.192 126.225 335.192 C 129.283 335.192 132.36 334.179 134.913 332.093 L 227.961 256.23 L 227.961 120.945 C 227.961 113.342 221.797 107.18 214.199 107.18 C 206.589 107.18 200.435 113.342 200.435 120.945 Z " fill="rgb(0,0,0)"/><path d=" M 432.902 253.705 C 418.173 253.705 404.338 259.439 394.146 269.608 L 376.338 286.705 L 358.792 269.868 C 348.389 259.44 334.532 253.705 319.804 253.705 C 305.078 253.705 291.235 259.466 280.847 269.868 C 270.419 280.275 264.68 294.107 264.68 308.849 C 264.68 323.553 270.412 337.409 280.835 347.806 C 291.218 358.223 305.065 363.968 319.804 363.968 C 334.521 363.968 348.381 358.237 358.548 348.042 L 376.347 330.967 L 393.909 347.806 C 404.313 358.223 418.174 363.968 432.903 363.968 C 447.619 363.968 461.452 358.237 471.855 347.806 C 482.275 337.425 488.022 323.565 488.022 308.824 C 488.022 294.083 482.298 280.262 471.855 269.845 C 461.439 259.439 447.606 253.705 432.902 253.705 Z  M 336.217 325.236 C 327.447 334.009 312.177 334.009 303.4 325.236 C 299.007 320.849 296.593 315.015 296.593 308.836 C 296.593 302.631 299.007 296.823 303.425 292.412 C 307.787 288.025 313.616 285.608 319.805 285.608 C 325.996 285.608 331.83 288.025 336.461 292.634 L 353.314 308.849 L 336.217 325.236 L 336.217 325.236 Z  M 449.302 325.236 C 440.529 334.02 425.475 334.233 416.24 325.01 L 399.38 308.797 L 416.477 292.399 C 425.249 283.613 440.529 283.613 449.302 292.374 C 453.69 296.785 456.102 302.595 456.102 308.799 C 456.102 314.992 453.689 320.85 449.302 325.236 Z " fill="rgb(0,0,0)"/></g></g></g></g></svg>